<?xml version="1.0" encoding="utf-8"?>
<!-- Generator: Adobe Illustrator 23.0.3, SVG Export Plug-In . SVG Version: 6.00 Build 0)  -->
<svg version="1.1" id="Layer_1" xmlns="http://www.w3.org/2000/svg" xmlns:xlink="http://www.w3.org/1999/xlink" x="0px" y="0px"
	 viewBox="0 0 595.3 841.9" style="enable-background:new 0 0 595.3 841.9;" xml:space="preserve">
<style type="text/css">
	.st0{fill:#FFFFFF;}
</style>
<g>
	<path class="st0" d="M91.9,109.5c1.6,0.5,2.8,1.2,3.8,1.9c1,0.7,1.7,1.4,2.2,2.1s0.9,1.3,1.1,1.9c0.2,0.6,0.3,1,0.3,1.3
		c0,0.2-0.1,0.4-0.4,0.4c-0.3,0.1-0.4,0.1-0.5,0.1c-0.1,0-0.3-0.1-0.6-0.3c-0.3-0.2-0.8-0.5-1.4-0.8c-0.6-0.3-1.3-0.7-2.1-1.1
		c-0.8-0.4-1.8-0.8-2.8-1.1c-2.6-0.7-4.7-1-6.2-1c-1.7,0-3.3,0.1-4.7,0.2c-1.4,0.1-2.7,0.3-4,0.5c-1.2,0.2-2.4,0.4-3.4,0.7
		c-1.1,0.3-2.1,0.5-3.1,0.8c-0.8,0.2-1.6,0.4-2.4,0.6c-0.8,0.2-1.6,0.4-2.4,0.6c-0.6,0.1-1.2,0.2-1.8,0.2c-0.6,0.1-1.2,0.1-1.8,0.1
		c-0.9,0-1.7-0.3-2.3-0.8c-0.7-0.6-1-1.3-1-2.3c0-0.7,0.2-1.4,0.7-2.1c0.4-0.7,1.1-1.3,1.8-2c0.8-0.7,1.7-1.4,2.7-2.1
		c1-0.8,2.2-1.6,3.4-2.5c1.4-1,2.8-2.2,4.3-3.3c1.5-1.2,3-2.4,4.5-3.6c1.5-1.2,2.9-2.3,4.1-3.5c1.3-1.1,2.4-2.2,3.3-3.1
		c0.7-0.8,1.4-1.6,2.1-2.4c0.7-0.8,1.3-1.6,1.9-2.4c0.5-0.8,1-1.6,1.3-2.5c0.3-0.8,0.5-1.7,0.5-2.5c0-1.6-0.4-3-1.2-4
		c-0.8-1.1-1.8-1.6-2.9-1.6c-0.9,0-1.7,0.2-2.6,0.6c-0.9,0.4-1.7,1-2.5,1.6c-0.8,0.6-1.5,1.3-2.1,2c-0.6,0.7-1.1,1.4-1.3,2
		c-0.6,0.8-1.3,1.4-1.9,1.7c-0.6,0.3-1.2,0.4-1.7,0.3c-0.5-0.2-0.9-0.6-1.3-1.2c-0.3-0.6-0.4-1.6-0.4-2.8c0.2-1,0.8-2,1.6-3.2
		c0.9-1.2,1.9-2.3,3.2-3.3c1.3-1,2.7-1.9,4.2-2.6c1.5-0.7,3.1-1,4.7-1c1.7,0,3.3,0.3,4.5,1c1.3,0.7,2.3,1.6,3.1,2.6
		c0.8,1.1,1.4,2.3,1.8,3.6c0.4,1.3,0.6,2.7,0.6,4c0,2.7-0.7,5.2-2.2,7.5c-1.5,2.3-3.4,4.6-5.7,7c-2.2,2.2-4.6,4.3-7.1,6.3
		c-2.5,2.1-5,4-7.3,5.8l-1.5,1.2c1.3-0.3,2.7-0.6,4.4-0.8c1.6-0.2,3.7-0.3,6-0.3c1.7,0,3.5,0.1,5.2,0.3
		C88.5,108.5,90.2,108.9,91.9,109.5z"/>
</g>
<g>
	<path class="st0" d="M114.5,114.6c-3.8,0-8.1-1-11.6-3.9c-1-0.8-1.2-1.3-0.3-2.4l2.1-2.9c0.9-1.1,1.4-0.7,2.2-0.2
		c2.1,1.6,5.6,2.7,7.3,2.7c3.6,0,4.1-1.6,4.1-2.8c0-2.3-2.9-3.6-7.7-5.2c-4-1.3-7.4-3.8-7.4-9c0-6,5-9.8,10.9-9.8
		c4.5,0,7.4,1.1,9.4,2.3c0.8,0.5,1.1,0.8,0.4,2.1l-1.5,3.1c-0.4,0.7-1,1.1-1.9,0.7c-1.6-0.7-4.2-1.6-6.2-1.6c-1.8,0-3.7,0.7-3.7,2.9
		c0,2.3,3.2,3.2,4.8,3.8c4.4,1.5,10.5,3.4,10.5,10.2C126,111.1,120.7,114.6,114.5,114.6z"/>
	<path class="st0" d="M140.7,114.6c-6.3,0-10.4-3.6-10.4-8.9v-6.6c0-5.3,4.1-9.1,10.4-9.1c6.3,0,10.5,3.1,10.5,9.1v6.3
		C151.2,111.5,146.7,114.6,140.7,114.6z M143.9,99.3c0-1.9-1.2-2.9-3.2-2.9c-1.9,0-3.1,1.3-3.1,3v5.9c0,1.8,1.2,2.9,3.1,2.9
		c1.9,0,3.1-1,3.1-2.9V99.3z"/>
	<path class="st0" d="M166.2,114.6c-6.3,0-10.5-3.8-10.5-9.4v-5.9c0-5.6,4.2-9.4,10.5-9.4c5,0,7.8,2.1,9.6,5.7
		c0.1,0.1,0.1,0.3,0.1,0.5c0,0.4-0.2,0.9-0.6,1.1l-3.6,2c-1.1,0.6-1.7-0.3-2.2-1.1c-0.9-1.5-2.2-1.9-3.3-1.9c-1.9,0-3.1,1.3-3.1,3
		v5.9c0,1.6,1.3,3,3.1,3c1.9,0,3.2-1.6,3.9-2.5c0.3-0.4,0.5-0.6,0.9-0.6c0.2,0,0.4,0.1,0.7,0.2l3.9,1.9c0.5,0.3,0.7,0.5,0.7,1
		c0,0.2-0.1,0.4-0.2,0.7C174.3,112.6,170.7,114.6,166.2,114.6z"/>
	<path class="st0" d="M183.5,88.2c-2.3,0-4.2-1.8-4.2-4c0-2.2,1.9-4,4.2-4c2.2,0,4.1,1.8,4.1,4C187.7,86.3,185.8,88.2,183.5,88.2z
		 M186,114.3H181c-0.7,0-1.2-0.4-1.2-1.1V91.6c0-0.7,0.4-1.2,1.2-1.2h4.9c0.6,0,1.2,0.4,1.2,1.2v21.6
		C187.2,113.9,186.7,114.3,186,114.3z"/>
	<path class="st0" d="M205.5,99.2c0.2,0,0.3-0.1,0.3-0.3v-0.8c0-1.1-0.6-2.4-3.8-2.4c-1.6,0-3,0.2-4.9,0.8c-1.1,0.4-1.3,0.3-1.5-0.4
		l-0.9-3.3c-0.2-0.6,0-1.2,0.6-1.4c2.3-1,5-1.4,8.2-1.4c7.2,0,9.9,3.6,9.9,9.8v13.6c0,0.7-0.2,1-0.9,1H207c-0.4,0-0.7-0.3-0.7-0.8
		v-0.2c0-0.3-0.1-0.5-0.3-0.5c-0.1,0-0.2,0.1-0.4,0.2c-1.6,1.3-3.1,1.6-4.9,1.6c-5.3,0-8.5-3.4-8.5-8.2c0-4.8,3.2-8.4,8.8-8.4
		c1.4,0,2.9,0.3,4.2,1.1C205.3,99.2,205.4,99.2,205.5,99.2z M202,109.2c1.9,0,3.2-1.3,3.2-3c0-1.7-1.2-3-3.2-3c-1.9,0-3.2,1.3-3.2,3
		C198.9,107.8,200,109.2,202,109.2z"/>
	<path class="st0" d="M226.1,105.9c0,1.6,0.2,2.3,1.9,2.3h0.5c0.8,0,1,0.7,1,1.1v4.1c0,1.1-0.5,1.2-1.3,1.3c-0.9,0.1-2,0.1-2.1,0.1
		c-4.9,0-7.3-2.2-7.3-7.5V81.6c0-0.7,0.4-1.1,1.2-1.1h4.9c0.6,0,1.2,0.4,1.2,1.1V105.9z"/>
</g>
<g>
	<path class="st0" d="M79.8,139.4h-1.6c-0.4,0-0.7,0-0.9-0.4l-4.6-7.5c0-0.1-0.1,0-0.1,0v7.4c0,0.4-0.3,0.5-0.7,0.5h-2.2
		c-0.4,0-0.6-0.1-0.6-0.5v-14.5c0-0.4,0.2-0.6,0.6-0.6h1.6c0.5,0,0.7,0.1,1,0.5l4.5,7.5v0c0.1,0.1,0.1,0.1,0.1-0.1v-7.4
		c0-0.4,0.2-0.5,0.6-0.5h2.2c0.4,0,0.6,0.1,0.6,0.5v14.4C80.4,139.2,80.2,139.4,79.8,139.4z"/>
	<path class="st0" d="M103.1,136.2c0.3,0,0.5,0.2,0.5,0.6v2c0,0.4-0.2,0.6-0.5,0.6h-8.8c-0.4,0-0.6-0.2-0.6-0.6v-14.3
		c0-0.4,0.2-0.6,0.6-0.6h8.6c0.3,0,0.5,0.2,0.5,0.6v2c0,0.4-0.2,0.6-0.5,0.6h-5.1c-0.5,0-0.6,0.2-0.6,0.5v1.7c0,0.5,0.1,0.6,0.6,0.6
		h4.2c0.4,0,0.5,0.2,0.5,0.6v2c0,0.4-0.1,0.6-0.5,0.6h-4.2c-0.5,0-0.6,0.2-0.6,0.5v2c0,0.5,0.2,0.6,0.7,0.6H103.1z"/>
	<path class="st0" d="M125.2,127.1h-2.6c-0.5,0-0.6,0.2-0.6,0.5l-0.1,11.4c0,0.4-0.2,0.5-0.6,0.5h-2.3c-0.4,0-0.6-0.1-0.6-0.5
		l0-11.4c0-0.3,0-0.5-0.5-0.5h-2.4c-0.4,0-0.5-0.2-0.5-0.6v-2c0-0.4,0.1-0.6,0.5-0.6h9.6c0.4,0,0.5,0.2,0.5,0.6v2
		C125.7,126.8,125.6,127.1,125.2,127.1z"/>
	<path class="st0" d="M152,138.9c-0.1,0.4-0.3,0.5-0.9,0.5h-2.2c-0.4,0-0.7,0-0.8-0.5l-1.1-4.6l-1-4.2c0-0.1-0.2-0.1-0.2-0.1l-1,4.2
		l-1.1,4.6c-0.1,0.4-0.4,0.5-0.9,0.5h-2.2c-0.4,0-0.7,0-0.8-0.5l-3.2-14.5c0-0.2-0.1-0.6,0.6-0.6h2.5c0.3,0,0.6,0.1,0.6,0.5l1,5.5
		l0.6,3.7v0c0,0.1,0.1,0.1,0.2,0l0.8-3.7l1.4-5.5c0.1-0.3,0.2-0.5,0.6-0.5h2.2c0.3,0,0.5,0.1,0.6,0.5l1.5,5.7l0.8,3.4
		c0,0.1,0.2,0.1,0.2,0v0l0.5-3.5l0.9-5.7c0.1-0.3,0.3-0.5,0.6-0.5h2.4c0.7,0,0.7,0.3,0.6,0.6L152,138.9z"/>
	<path class="st0" d="M172.7,139.5c-3.1,0-5.5-1.9-5.5-4.8v-6.2c0-3,2.3-4.9,5.5-4.9c3.1,0,5.6,1.9,5.6,4.9v6.2
		C178.3,137.7,175.9,139.5,172.7,139.5z M174.6,128.5c0-0.9-0.5-1.7-1.9-1.7c-1.3,0-2,0.8-2,1.7v6.2c0,0.8,0.7,1.6,1.9,1.6
		c1.2,0,1.9-0.8,1.9-1.6V128.5z"/>
	<path class="st0" d="M197.4,123.9c2.9,0,4.9,1.6,4.9,4.7c0,1.7-0.9,3.2-2.1,4.4c-0.2,0.2-0.2,0.3,0,0.6l2.4,5.2
		c0.1,0.3,0,0.6-0.4,0.6h-2.5c-0.8,0-1-0.3-1.1-0.6l-2-4.7c0-0.1-0.1-0.2-0.3-0.2h-1.1c-0.2,0-0.3,0.1-0.3,0.3v4.8
		c0,0.4-0.2,0.5-0.6,0.5H192c-0.4,0-0.6-0.1-0.6-0.5v-14.4c0-0.4,0.1-0.6,0.5-0.6H197.4z M197.2,130.6c0.2,0,0.5-0.1,0.6-0.2
		c0.7-0.6,0.9-1.4,0.9-1.8c0-1.1-0.9-1.6-1.5-1.6h-1.7c-0.5,0-0.6,0.2-0.6,0.6v2.5c0,0.3,0.1,0.5,0.6,0.5H197.2z"/>
	<path class="st0" d="M226.3,138.8c0,0.4-0.2,0.6-0.5,0.6h-2.6c-0.4,0-0.5-0.2-0.5-0.6l-0.3-4.5c-0.1-1.1-0.7-1.8-1.9-1.8
		c-1.1,0-1.9,0.9-1.9,1.8l-0.1,4.5c0,0.4-0.1,0.6-0.5,0.6h-2.6c-0.4,0-0.5-0.2-0.5-0.6v-14.4c0-0.4,0.2-0.6,0.6-0.6h2.4
		c0.3,0,0.5,0.2,0.5,0.6v4.2c0,0.3,0.2,0.2,0.3,0.1l3.5-4.4c0.3-0.4,0.4-0.4,1-0.4h2.8c0.3,0,0.4,0.3,0.2,0.6l-4.1,5.2
		c-0.2,0.2-0.2,0.3,0.1,0.3c0.2,0,0.5,0.1,0.7,0.1c2.2,0.5,2.8,2.1,2.9,4.1L226.3,138.8z"/>
</g>
</svg>
